<svg width="201" height="36" viewBox="0 0 201 36" fill="none" xmlns="http://www.w3.org/2000/svg">
<path d="M18.725 3.235C17.7683 3.74833 16.7533 4.71667 15.68 6.14C14.6067 7.54 13.5217 9.33667 12.425 11.53C13.265 11.6933 14.035 11.88 14.735 12.09C15.4583 12.3 16.1117 12.5217 16.695 12.755L18.725 3.235ZM21.455 0.749998C21.945 0.749998 22.435 0.796665 22.925 0.889998C23.415 0.959999 23.8467 1.07667 24.22 1.24L18.725 27H13.685L16.38 14.295C15.5633 13.9217 14.7933 13.6417 14.07 13.455C13.3467 13.245 12.5533 13.105 11.69 13.035C10.36 15.9283 9.26333 18.8683 8.4 21.855C7.56 24.8417 7.14 27.2333 7.14 29.03C7.14 29.45 7.175 29.8117 7.245 30.115C7.33833 30.4417 7.46667 30.7333 7.63 30.99C5.85667 30.99 4.63167 30.6867 3.955 30.08C3.27833 29.4733 2.94 28.54 2.94 27.28C2.94 25.7167 3.40667 23.6283 4.34 21.015C5.29667 18.4017 6.545 15.7417 8.085 13.035C6.895 13.105 5.96167 13.2917 5.285 13.595C4.63167 13.8983 4.2 14.3183 3.99 14.855C4.08333 14.855 4.17667 14.9833 4.27 15.24C4.38667 15.4733 4.445 15.7067 4.445 15.94C4.445 16.3367 4.25833 16.6633 3.885 16.92C3.51167 17.1767 3.045 17.305 2.485 17.305C1.83167 17.305 1.30667 17.13 0.91 16.78C0.513333 16.4067 0.315 15.905 0.315 15.275C0.315 14.0617 0.991667 13.0467 2.345 12.23C3.72167 11.39 5.425 10.97 7.455 10.97C7.68833 10.97 7.95667 10.9817 8.26 11.005C8.56333 11.005 8.90167 11.0283 9.275 11.075C11.3283 7.83167 13.4167 5.3 15.54 3.48C17.6633 1.66 19.635 0.749998 21.455 0.749998ZM29.2239 23.815C29.8072 23.815 30.3322 23.57 30.7989 23.08C31.2656 22.59 31.6506 21.8783 31.9539 20.945L34.4039 9.5H39.4439L35.9789 25.74C37.1456 25.32 38.0556 24.7367 38.7089 23.99C39.3856 23.22 39.9456 22.135 40.3889 20.735H41.8589C41.3222 22.5083 40.5522 23.9317 39.5489 25.005C38.5689 26.0783 37.2739 26.8367 35.6639 27.28L35.1389 29.8C34.7189 31.76 33.9839 33.2417 32.9339 34.245C31.8839 35.2483 30.5189 35.75 28.8389 35.75C27.6489 35.75 26.6922 35.4467 25.9689 34.84C25.2689 34.2333 24.9189 33.405 24.9189 32.355C24.9189 31.2117 25.3856 30.1967 26.3189 29.31C27.2756 28.4467 28.7106 27.7233 30.6239 27.14L31.0439 25.25C30.4606 25.9033 29.8189 26.3933 29.1189 26.72C28.4422 27.0467 27.6839 27.21 26.8439 27.21C25.6772 27.21 24.7556 26.8483 24.0789 26.125C23.4256 25.3783 23.0989 24.34 23.0989 23.01C23.0989 22.7067 23.1222 22.3683 23.1689 21.995C23.2156 21.5983 23.2856 21.1783 23.3789 20.735L25.7589 9.5H30.7989L28.2789 21.4C28.2556 21.54 28.2322 21.6917 28.2089 21.855C28.1856 21.995 28.1739 22.135 28.1739 22.275C28.1739 22.765 28.2556 23.15 28.4189 23.43C28.6056 23.6867 28.8739 23.815 29.2239 23.815ZM30.2739 28.89C29.1072 29.3333 28.2439 29.7883 27.6839 30.255C27.1239 30.745 26.8439 31.2817 26.8439 31.865C26.8439 32.1683 26.9606 32.4367 27.1939 32.67C27.4272 32.9033 27.7072 33.02 28.0339 33.02C28.4306 33.02 28.8156 32.74 29.1889 32.18C29.5622 31.62 29.8539 30.8617 30.0639 29.905L30.2739 28.89ZM39.9104 21.61C39.9104 20.28 40.1204 18.8683 40.5404 17.375C40.9837 15.8817 41.5787 14.5517 42.3254 13.385C43.1887 12.0083 44.2271 10.97 45.4404 10.27C46.6537 9.54667 48.0071 9.185 49.5004 9.185C50.9937 9.185 52.1137 9.65167 52.8604 10.585C53.6071 11.5183 53.9804 12.9183 53.9804 14.785C54.0271 14.8083 54.0737 14.8317 54.1204 14.855C54.1904 14.855 54.2721 14.855 54.3654 14.855C55.0887 14.855 55.9521 14.6567 56.9554 14.26C57.9587 13.8633 58.8921 13.3617 59.7554 12.755L60.0704 13.7C59.4171 14.4 58.5421 15.0067 57.4454 15.52C56.3721 16.0333 55.1821 16.395 53.8754 16.605C53.5954 19.755 52.6854 22.2983 51.1454 24.235C49.6054 26.1717 47.7271 27.14 45.5104 27.14C43.6904 27.14 42.3021 26.6733 41.3454 25.74C40.3887 24.8067 39.9104 23.43 39.9104 21.61ZM49.7804 11.32C48.6604 11.32 47.5987 12.4517 46.5954 14.715C45.6154 16.9783 45.1254 19.125 45.1254 21.155C45.1254 22.2517 45.2421 22.9983 45.4754 23.395C45.7321 23.7917 46.2104 23.99 46.9104 23.99C47.7737 23.99 48.5904 23.29 49.3604 21.89C50.1537 20.49 50.6904 18.7633 50.9704 16.71C50.6437 16.64 50.3987 16.4883 50.2354 16.255C50.0954 15.9983 50.0254 15.66 50.0254 15.24C50.0254 14.7967 50.1187 14.4117 50.3054 14.085C50.4921 13.7583 50.7604 13.5133 51.1104 13.35C51.0637 12.6033 50.9354 12.0783 50.7254 11.775C50.5387 11.4717 50.2237 11.32 49.7804 11.32ZM74.2643 23.255C74.2643 22.835 74.3109 22.31 74.4043 21.68C74.5209 21.05 74.7426 20.0467 75.0693 18.67C75.3959 17.34 75.6059 16.3833 75.6993 15.8C75.7926 15.2167 75.8393 14.7267 75.8393 14.33C75.8393 13.7467 75.7343 13.3033 75.5243 13C75.3143 12.6967 74.9993 12.545 74.5793 12.545C74.0193 12.545 73.4943 12.8367 73.0043 13.42C72.5376 13.98 72.1526 14.7617 71.8493 15.765L69.4693 27H64.4293L66.9843 14.925C67.0309 14.785 67.0543 14.645 67.0543 14.505C67.0776 14.365 67.0893 14.2133 67.0893 14.05C67.0893 13.5833 66.9959 13.21 66.8093 12.93C66.6226 12.65 66.3659 12.51 66.0393 12.51C65.4326 12.51 64.8843 12.8017 64.3943 13.385C63.9043 13.945 63.5076 14.7383 63.2043 15.765L60.8243 27H55.7843L59.4943 9.5H64.5343L64.1493 11.32C64.7326 10.6433 65.3743 10.1417 66.0743 9.815C66.7743 9.48833 67.5559 9.325 68.4193 9.325C69.4459 9.325 70.2509 9.58167 70.8343 10.095C71.4409 10.585 71.8376 11.3317 72.0243 12.335C72.6776 11.3317 73.4009 10.585 74.1943 10.095C74.9876 9.605 75.8859 9.36 76.8893 9.36C78.1259 9.36 79.0826 9.69833 79.7593 10.375C80.4359 11.0517 80.7743 12.0317 80.7743 13.315C80.7743 13.8517 80.7043 14.4933 80.5643 15.24C80.4476 15.9633 80.2026 17.0833 79.8293 18.6C79.5259 19.79 79.3276 20.63 79.2343 21.12C79.1409 21.61 79.0943 22.0183 79.0943 22.345C79.0943 22.835 79.2109 23.2083 79.4443 23.465C79.6776 23.6983 80.0276 23.815 80.4943 23.815C81.0776 23.815 81.5793 23.6167 81.9993 23.22C82.4193 22.8233 82.8976 21.995 83.4343 20.735H84.9043C84.1576 22.905 83.2476 24.5267 82.1743 25.6C81.1243 26.6733 79.8643 27.21 78.3943 27.21C77.0876 27.21 76.0726 26.86 75.3493 26.16C74.6259 25.4367 74.2643 24.4683 74.2643 23.255ZM92.0776 4.845C92.0776 5.615 91.7976 6.26833 91.2376 6.805C90.701 7.34167 90.0476 7.61 89.2776 7.61C88.5076 7.61 87.8543 7.34167 87.3176 6.805C86.781 6.26833 86.5126 5.615 86.5126 4.845C86.5126 4.075 86.781 3.42167 87.3176 2.885C87.8543 2.325 88.5076 2.045 89.2776 2.045C90.0476 2.045 90.701 2.325 91.2376 2.885C91.7976 3.42167 92.0776 4.075 92.0776 4.845ZM83.1526 23.01C83.1526 22.7067 83.176 22.3683 83.2226 21.995C83.2693 21.5983 83.3393 21.1783 83.4326 20.735L85.8126 9.5H90.8526L88.3326 21.4C88.286 21.61 88.251 21.8083 88.2276 21.995C88.2043 22.1583 88.1926 22.3333 88.1926 22.52C88.1926 22.9867 88.2976 23.325 88.5076 23.535C88.741 23.7217 89.1143 23.815 89.6276 23.815C90.281 23.815 90.8993 23.535 91.4826 22.975C92.066 22.3917 92.4976 21.645 92.7776 20.735H94.2476C93.501 22.8583 92.4976 24.4683 91.2376 25.565C89.9776 26.6617 88.531 27.21 86.8976 27.21C85.731 27.21 84.8093 26.8483 84.1326 26.125C83.4793 25.3783 83.1526 24.34 83.1526 23.01ZM97.4887 21.085C97.4887 21.995 97.617 22.6833 97.8737 23.15C98.1303 23.5933 98.5853 23.815 99.2387 23.815C99.822 23.815 100.394 23.5467 100.954 23.01C101.514 22.45 101.899 21.75 102.109 20.91V20.735L103.824 12.72C103.754 12.3467 103.59 12.055 103.334 11.845C103.1 11.6117 102.785 11.495 102.389 11.495C101.105 11.495 99.962 12.5683 98.9587 14.715C97.9787 16.8617 97.4887 18.985 97.4887 21.085ZM104.139 11.11V11.25L105.854 3.2L111.034 2.5L107.009 21.4C106.962 21.61 106.927 21.8083 106.904 21.995C106.88 22.1583 106.869 22.3333 106.869 22.52C106.869 22.9867 106.974 23.325 107.184 23.535C107.417 23.7217 107.79 23.815 108.304 23.815C108.91 23.815 109.459 23.5467 109.949 23.01C110.439 22.4733 110.835 21.715 111.139 20.735H112.609C111.885 22.8117 110.94 24.375 109.774 25.425C108.63 26.475 107.23 27 105.574 27C104.617 27 103.835 26.7433 103.229 26.23C102.645 25.6933 102.284 24.9467 102.144 23.99C101.444 25.0633 100.662 25.8683 99.7987 26.405C98.9353 26.9417 97.9903 27.21 96.9637 27.21C95.517 27.21 94.3737 26.72 93.5337 25.74C92.717 24.76 92.3087 23.3717 92.3087 21.575C92.3087 20.2683 92.507 18.9033 92.9037 17.48C93.3003 16.0567 93.8487 14.7617 94.5487 13.595C95.412 12.2183 96.4153 11.1683 97.5587 10.445C98.702 9.69833 99.9503 9.325 101.304 9.325C102.214 9.325 102.914 9.48833 103.404 9.815C103.894 10.1183 104.139 10.55 104.139 11.11ZM123.211 12.545C123.211 14.4817 122.418 16.1733 120.831 17.62C119.245 19.0433 117.355 19.8133 115.161 19.93C115.138 20.3267 115.115 20.63 115.091 20.84C115.091 21.0267 115.091 21.19 115.091 21.33C115.091 22.4033 115.266 23.1617 115.616 23.605C115.99 24.0483 116.655 24.27 117.611 24.27C118.708 24.27 119.711 24.025 120.621 23.535C121.555 23.0217 122.616 22.0883 123.806 20.735H124.996C123.643 22.9283 122.173 24.5617 120.586 25.635C119 26.685 117.261 27.21 115.371 27.21C113.575 27.21 112.21 26.7433 111.276 25.81C110.366 24.8767 109.911 23.4883 109.911 21.645C109.911 20.315 110.121 18.9033 110.541 17.41C110.961 15.9167 111.521 14.5867 112.221 13.42C113.085 12.02 114.111 10.97 115.301 10.27C116.515 9.54667 117.868 9.185 119.361 9.185C120.645 9.185 121.601 9.465 122.231 10.025C122.885 10.5617 123.211 11.4017 123.211 12.545ZM119.641 11.04C118.848 11.04 118.043 11.7517 117.226 13.175C116.433 14.575 115.838 16.2667 115.441 18.25C116.795 18.1567 117.973 17.5383 118.976 16.395C120.003 15.2283 120.516 13.9217 120.516 12.475C120.516 11.985 120.446 11.6233 120.306 11.39C120.166 11.1567 119.945 11.04 119.641 11.04ZM139.717 27H134.677L139.437 4.74L144.617 4.04L142.972 11.81H143.182C144.488 11.81 145.655 11.215 146.682 10.025C147.708 8.835 148.222 7.54 148.222 6.14C148.222 4.97333 147.813 4.05167 146.997 3.375C146.203 2.69833 145.072 2.36 143.602 2.36C141.152 2.36 139.075 3.14167 137.372 4.705C135.692 6.26833 134.852 8.32167 134.852 10.865C134.852 11.3083 134.875 11.6933 134.922 12.02C134.992 12.3467 135.097 12.6617 135.237 12.965C135.283 13.0583 135.307 13.1283 135.307 13.175C135.33 13.1983 135.342 13.2217 135.342 13.245C134.082 13.245 133.137 12.9767 132.507 12.44C131.9 11.9033 131.597 11.0983 131.597 10.025C131.597 8.765 131.993 7.52833 132.787 6.315C133.603 5.10167 134.723 4.04 136.147 3.13C137.313 2.36 138.597 1.77667 139.997 1.38C141.42 0.959998 142.855 0.749998 144.302 0.749998C146.588 0.749998 148.397 1.26333 149.727 2.29C151.08 3.31666 151.757 4.65833 151.757 6.315C151.757 7.41167 151.442 8.46167 150.812 9.465C150.182 10.4683 149.33 11.2733 148.257 11.88C149.587 12.1367 150.602 12.7667 151.302 13.77C152.025 14.75 152.387 15.9983 152.387 17.515C152.387 18.6117 152.223 19.7667 151.897 20.98C151.57 22.1933 151.115 23.2667 150.532 24.2C149.832 25.32 148.992 26.1717 148.012 26.755C147.032 27.315 145.935 27.595 144.722 27.595C143.625 27.595 142.773 27.3733 142.167 26.93C141.56 26.4867 141.257 25.845 141.257 25.005C141.257 24.725 141.292 24.4217 141.362 24.095C141.432 23.745 141.548 23.3717 141.712 22.975C142.155 23.4183 142.552 23.745 142.902 23.955C143.275 24.1417 143.66 24.235 144.057 24.235C145.107 24.235 145.947 23.6283 146.577 22.415C147.207 21.2017 147.522 19.7083 147.522 17.935C147.522 16.465 147.242 15.3567 146.682 14.61C146.122 13.8633 145.293 13.49 144.197 13.49C144.033 13.49 143.788 13.5017 143.462 13.525C143.158 13.5483 142.867 13.5717 142.587 13.595L139.717 27ZM164.979 11.11V11.355L165.364 9.5H170.404L167.884 21.4C167.837 21.61 167.802 21.8083 167.779 21.995C167.755 22.1583 167.744 22.3333 167.744 22.52C167.744 23.0333 167.86 23.4183 168.094 23.675C168.327 23.9083 168.689 24.025 169.179 24.025C169.785 24.025 170.334 23.745 170.824 23.185C171.314 22.6017 171.71 21.785 172.014 20.735H173.484C172.737 22.8817 171.769 24.5033 170.579 25.6C169.389 26.6733 168.012 27.21 166.449 27.21C165.445 27.21 164.64 26.93 164.034 26.37C163.45 25.81 163.112 25.0167 163.019 23.99C162.295 25.0633 161.49 25.8683 160.604 26.405C159.74 26.9417 158.807 27.21 157.804 27.21C156.357 27.21 155.214 26.72 154.374 25.74C153.557 24.76 153.149 23.3717 153.149 21.575C153.149 20.2683 153.347 18.9033 153.744 17.48C154.14 16.0567 154.689 14.7617 155.389 13.595C156.252 12.2183 157.255 11.1683 158.399 10.445C159.542 9.69833 160.79 9.325 162.144 9.325C163.054 9.325 163.754 9.48833 164.244 9.815C164.734 10.1183 164.979 10.55 164.979 11.11ZM164.664 12.825C164.664 12.475 164.535 12.1717 164.279 11.915C164.022 11.635 163.672 11.495 163.229 11.495C161.945 11.495 160.802 12.5683 159.799 14.715C158.819 16.8617 158.329 18.985 158.329 21.085C158.329 21.995 158.457 22.6833 158.714 23.15C158.97 23.5933 159.425 23.815 160.079 23.815C160.685 23.815 161.269 23.5233 161.829 22.94C162.412 22.3567 162.797 21.6217 162.984 20.735L164.664 12.825ZM180.391 4.81C180.391 5.58 180.111 6.23333 179.551 6.77C179.015 7.30667 178.361 7.575 177.591 7.575C176.821 7.575 176.168 7.30667 175.631 6.77C175.095 6.23333 174.826 5.58 174.826 4.81C174.826 4.04 175.095 3.38666 175.631 2.85C176.168 2.29 176.821 2.01 177.591 2.01C178.361 2.01 179.015 2.29 179.551 2.85C180.111 3.38666 180.391 4.04 180.391 4.81ZM164.956 32.355C164.956 31.1883 165.435 30.1733 166.391 29.31C167.348 28.4467 168.783 27.7233 170.696 27.14L174.441 9.5H179.481L176.016 25.74C177.183 25.32 178.093 24.7367 178.746 23.99C179.423 23.22 179.983 22.135 180.426 20.735H181.896C181.36 22.5083 180.59 23.9317 179.586 25.005C178.606 26.0783 177.311 26.8367 175.701 27.28L175.176 29.8C174.756 31.76 174.021 33.2417 172.971 34.245C171.921 35.2483 170.556 35.75 168.876 35.75C167.686 35.75 166.741 35.4467 166.041 34.84C165.318 34.2333 164.956 33.405 164.956 32.355ZM170.311 28.89C169.145 29.3333 168.281 29.7883 167.721 30.255C167.161 30.745 166.881 31.2817 166.881 31.865C166.881 32.1683 166.998 32.4367 167.231 32.67C167.465 32.9033 167.745 33.02 168.071 33.02C168.468 33.02 168.853 32.74 169.226 32.18C169.6 31.62 169.891 30.8617 170.101 29.905L170.311 28.89ZM179.945 21.61C179.945 20.28 180.155 18.8683 180.575 17.375C181.018 15.8817 181.613 14.5517 182.36 13.385C183.223 12.0083 184.261 10.97 185.475 10.27C186.688 9.54667 188.041 9.185 189.535 9.185C191.028 9.185 192.148 9.65167 192.895 10.585C193.641 11.5183 194.015 12.9183 194.015 14.785C194.061 14.8083 194.108 14.8317 194.155 14.855C194.225 14.855 194.306 14.855 194.4 14.855C195.123 14.855 195.986 14.6567 196.99 14.26C197.993 13.8633 198.926 13.3617 199.79 12.755L200.105 13.7C199.451 14.4 198.576 15.0067 197.48 15.52C196.406 16.0333 195.216 16.395 193.91 16.605C193.63 19.755 192.72 22.2983 191.18 24.235C189.64 26.1717 187.761 27.14 185.545 27.14C183.725 27.14 182.336 26.6733 181.38 25.74C180.423 24.8067 179.945 23.43 179.945 21.61ZM189.815 11.32C188.695 11.32 187.633 12.4517 186.63 14.715C185.65 16.9783 185.16 19.125 185.16 21.155C185.16 22.2517 185.276 22.9983 185.51 23.395C185.766 23.7917 186.245 23.99 186.945 23.99C187.808 23.99 188.625 23.29 189.395 21.89C190.188 20.49 190.725 18.7633 191.005 16.71C190.678 16.64 190.433 16.4883 190.27 16.255C190.13 15.9983 190.06 15.66 190.06 15.24C190.06 14.7967 190.153 14.4117 190.34 14.085C190.526 13.7583 190.795 13.5133 191.145 13.35C191.098 12.6033 190.97 12.0783 190.76 11.775C190.573 11.4717 190.258 11.32 189.815 11.32Z" fill="black"/>
</svg>
